<svg width="18" height="19" viewBox="0 0 18 19" fill="none" xmlns="http://www.w3.org/2000/svg">
<path d="M15.3633 2.76172C14.9531 2.35156 14.5078 1.98828 14.0273 1.67188C13.5469 1.34375 13.0371 1.06836 12.498 0.845703C11.959 0.611328 11.3965 0.429688 10.8105 0.300781C10.2246 0.183594 9.62109 0.125 9 0.125C7.75781 0.125 6.5918 0.359375 5.50195 0.828125C4.40039 1.30859 3.43945 1.95898 2.61914 2.7793C1.81055 3.58789 1.17188 4.53711 0.703125 5.62695C0.234375 6.7168 0 7.88281 0 9.125C0 10.3672 0.234375 11.5332 0.703125 12.623C1.17188 13.7246 1.81055 14.6855 2.61914 15.5059C3.43945 16.3145 4.40039 16.9531 5.50195 17.4219C6.5918 17.8906 7.75781 18.125 9 18.125C9.62109 18.125 10.2246 18.0664 10.8105 17.9492C11.3965 17.8203 11.959 17.6387 12.498 17.4043C13.0371 17.1816 13.5469 16.9121 14.0273 16.5957C14.5078 16.2676 14.9531 15.8984 15.3633 15.4883C15.7734 15.0781 16.1426 14.6328 16.4707 14.1523C16.7871 13.6719 17.0566 13.1621 17.2793 12.623C17.5137 12.084 17.6953 11.5215 17.8242 10.9355C17.9414 10.3496 18 9.74609 18 9.125C18 8.50391 17.9414 7.90039 17.8242 7.31445C17.6953 6.72852 17.5137 6.16602 17.2793 5.62695C17.0566 5.08789 16.7871 4.57813 16.4707 4.09766C16.1426 3.61719 15.7734 3.17188 15.3633 2.76172ZM12.7441 7.5957L8.31445 12.0078C8.2207 12.1016 8.10938 12.1777 7.98047 12.2363C7.86328 12.2949 7.73438 12.3242 7.59375 12.3242C7.44141 12.3242 7.30078 12.2949 7.17188 12.2363C7.05469 12.1777 6.94922 12.1016 6.85547 12.0078L4.62305 9.79297C4.56445 9.72266 4.51758 9.65234 4.48242 9.58203C4.44727 9.5 4.42969 9.41211 4.42969 9.31836C4.42969 9.22461 4.44727 9.13672 4.48242 9.05469C4.51758 8.97266 4.56445 8.90234 4.62305 8.84375L5.15039 8.31641C5.20898 8.25781 5.2793 8.21094 5.36133 8.17578C5.44336 8.14062 5.53125 8.12305 5.625 8.12305C5.71875 8.12305 5.80078 8.14062 5.87109 8.17578C5.95312 8.21094 6.0293 8.25781 6.09961 8.31641L7.59375 9.81055L11.2676 6.11914C11.3262 6.06055 11.3965 6.01367 11.4785 5.97852C11.5605 5.94336 11.6484 5.92578 11.7422 5.92578C11.8359 5.92578 11.9238 5.94336 12.0059 5.97852C12.0879 6.01367 12.1582 6.06055 12.2168 6.11914L12.7266 6.64648C12.7969 6.70508 12.8496 6.77539 12.8848 6.85742C12.9199 6.93945 12.9375 7.02734 12.9375 7.12109C12.9375 7.21484 12.9199 7.30273 12.8848 7.38477C12.8496 7.4668 12.7969 7.53711 12.7266 7.5957H12.7441Z" fill="#18BB4B"/>
</svg>
