<svg width="14" height="14" viewBox="0 0 14 14" fill="none" xmlns="http://www.w3.org/2000/svg">
<path d="M7 13.8125C7.89714 13.8125 8.73926 13.6432 9.52637 13.3047C10.3219 12.9661 11.0117 12.5049 11.5957 11.9209C12.1882 11.3285 12.6536 10.6344 12.9922 9.83887C13.3307 9.05176 13.5 8.20964 13.5 7.3125C13.5 6.41536 13.3307 5.57324 12.9922 4.78613C12.6536 3.99056 12.1882 3.30078 11.5957 2.7168C11.0117 2.12435 10.3219 1.65885 9.52637 1.32031C8.73926 0.981771 7.89714 0.8125 7 0.8125C6.10286 0.8125 5.26074 0.981771 4.47363 1.32031C3.67806 1.65885 2.98405 2.12435 2.3916 2.7168C1.80762 3.30078 1.34635 3.99056 1.00781 4.78613C0.669271 5.57324 0.5 6.41536 0.5 7.3125C0.5 8.20964 0.669271 9.05176 1.00781 9.83887C1.34635 10.6344 1.80762 11.3285 2.3916 11.9209C2.98405 12.5049 3.67806 12.9661 4.47363 13.3047C5.26074 13.6432 6.10286 13.8125 7 13.8125ZM6.33984 3.69434C6.33984 3.63509 6.361 3.58431 6.40332 3.54199C6.44564 3.49967 6.49642 3.47852 6.55566 3.47852H7.41895C7.47819 3.47852 7.52897 3.49967 7.57129 3.54199C7.61361 3.58431 7.63477 3.63509 7.63477 3.69434V7.89648C7.63477 7.95573 7.61361 8.00651 7.57129 8.04883C7.52897 8.09115 7.47819 8.1123 7.41895 8.1123H6.56836C6.50911 8.1123 6.45833 8.09115 6.41602 8.04883C6.3737 8.00651 6.35254 7.95573 6.35254 7.89648L6.33984 3.69434ZM7 9.05176C7.22005 9.06022 7.40625 9.14062 7.55859 9.29297C7.71094 9.44531 7.78711 9.63151 7.78711 9.85156C7.78711 10.0716 7.70671 10.2578 7.5459 10.4102C7.39355 10.5625 7.20736 10.6387 6.9873 10.6387C6.77572 10.6387 6.58952 10.5625 6.42871 10.4102C6.27637 10.2578 6.2002 10.0716 6.2002 9.85156C6.2002 9.63151 6.27637 9.44531 6.42871 9.29297C6.58952 9.13216 6.77995 9.05176 7 9.05176Z" fill="#FFAC14"/>
</svg>
