<svg width="12" height="13" viewBox="0 0 12 13" fill="none" xmlns="http://www.w3.org/2000/svg">
<path d="M10.3945 0.75H7.19531V2.35547H9.26953L3 8.61328C3 8.61328 2.99609 8.61719 2.98828 8.625C2.98828 8.63281 2.98828 8.63672 2.98828 8.63672C2.98828 8.64453 2.98828 8.65234 2.98828 8.66016C2.99609 8.66016 3 8.66406 3 8.67188L4.07812 9.75C4.08594 9.75 4.08984 9.75391 4.08984 9.76172C4.09766 9.76172 4.10547 9.76172 4.11328 9.76172C4.11328 9.76172 4.11719 9.76172 4.125 9.76172C4.13281 9.75391 4.13672 9.75 4.13672 9.75L10.3945 3.48047V5.55469H12V0.75H10.3945ZM10.3945 10.7461C10.3945 10.8555 10.3555 10.9492 10.2773 11.0273C10.1992 11.1055 10.1055 11.1445 9.99609 11.1445H2.00391C1.89453 11.1445 1.80078 11.1055 1.72266 11.0273C1.64453 10.9492 1.60547 10.8555 1.60547 10.7461V2.75391C1.60547 2.64453 1.64453 2.55078 1.72266 2.47266C1.80078 2.39453 1.89453 2.35547 2.00391 2.35547H4.60547V0.75H1.60547C1.16016 0.75 0.78125 0.90625 0.46875 1.21875C0.15625 1.53125 0 1.91016 0 2.35547V11.1445C0 11.5898 0.15625 11.9688 0.46875 12.2812C0.78125 12.5938 1.16016 12.75 1.60547 12.75H10.3945C10.8398 12.75 11.2188 12.5938 11.5312 12.2812C11.8438 11.9688 12 11.5898 12 11.1445V8.14453H10.3945V10.7461Z" fill="#286EF1"/>
</svg>
