<svg width="27" height="26" viewBox="0 0 27 26" fill="none" xmlns="http://www.w3.org/2000/svg">
<path d="M5.64604 5.59833C5.6291 5.59833 5.60368 5.59833 5.56979 5.59833C5.55285 5.59833 5.5359 5.59833 5.51896 5.59833C4.79035 5.59833 4.11257 5.73389 3.48563 6.005C2.85868 6.27611 2.30799 6.64889 1.83354 7.12333C1.37604 7.58083 1.01174 8.12306 0.740625 8.75C0.469514 9.37694 0.333959 10.0463 0.333959 10.7579C0.333959 11.4696 0.469514 12.1389 0.740625 12.7658C1.01174 13.3928 1.37604 13.9435 1.83354 14.4179C2.30799 14.8924 2.85868 15.2651 3.48563 15.5363C4.11257 15.8074 4.79035 15.9429 5.51896 15.9429C5.5359 15.9429 5.55285 15.9429 5.56979 15.9429C5.60368 15.9429 5.63757 15.9429 5.67146 15.9429C5.89174 15.9429 6.0866 15.8667 6.25604 15.7142C6.44243 15.5617 6.55257 15.3753 6.58646 15.155V15.1296V6.53875C6.58646 6.28458 6.49326 6.06431 6.30688 5.87792C6.12049 5.69153 5.90021 5.59833 5.64604 5.59833ZM26.5131 1.37917C26.5131 1.125 26.4199 0.904722 26.2335 0.718333C26.0472 0.531944 25.8269 0.43875 25.5727 0.43875C25.471 0.43875 25.3694 0.455694 25.2677 0.489583C25.166 0.523472 25.0813 0.574306 25.0135 0.642083L16.7277 5.42042H9.25521C9.00104 5.42042 8.78076 5.51361 8.59438 5.7C8.40799 5.86944 8.31479 6.08972 8.31479 6.36083V15.2821C8.34868 15.5193 8.45035 15.7142 8.61979 15.8667C8.80618 16.0192 9.01799 16.0954 9.25521 16.0954H15.889L24.9373 21.3058C25.022 21.3906 25.1152 21.4583 25.2169 21.5092C25.3355 21.5431 25.4541 21.56 25.5727 21.56C25.8269 21.56 26.0472 21.4753 26.2335 21.3058C26.4199 21.1194 26.5131 20.8992 26.5131 20.645C26.5131 20.6281 26.5131 20.6111 26.5131 20.5942C26.5131 20.5772 26.5131 20.5603 26.5131 20.5433V1.43C26.5131 1.43 26.5131 1.42153 26.5131 1.40458C26.5131 1.38764 26.5131 1.37917 26.5131 1.37917ZM15.6602 23.2629V23.1867L12.7373 18.2304C12.6695 18.1118 12.5763 18.0271 12.4577 17.9763C12.356 17.9085 12.2374 17.8661 12.1019 17.8492H9.58563C9.3484 17.8661 9.14507 17.9678 8.97563 18.1542C8.80618 18.3236 8.72146 18.5269 8.72146 18.7642C8.72146 18.8658 8.72993 18.959 8.74688 19.0438C8.78076 19.1115 8.81465 19.1793 8.84854 19.2471C8.86549 19.264 8.88243 19.281 8.89938 19.2979C8.91632 19.3149 8.92479 19.3318 8.92479 19.3488L12.2798 25.1437L12.3306 25.1946C12.4153 25.3301 12.5255 25.4318 12.661 25.4996C12.7966 25.5843 12.9406 25.6267 13.0931 25.6267C13.2117 25.6267 13.3219 25.6012 13.4235 25.5504C13.5252 25.5165 13.6184 25.4657 13.7031 25.3979L15.4315 24.4067C15.5331 24.3219 15.6178 24.2118 15.6856 24.0762C15.7534 23.9576 15.7873 23.8221 15.7873 23.6696C15.7873 23.6018 15.7788 23.534 15.7619 23.4663C15.7449 23.3815 15.7195 23.3138 15.6856 23.2629H15.6602Z" fill="white"/>
</svg>
