<svg width="77" height="32" viewBox="0 0 77 32" fill="none" xmlns="http://www.w3.org/2000/svg">
<path fill-rule="evenodd" clip-rule="evenodd" d="M41.7457 4.33645L36.4468 5.48999V1.13218L41.7457 0V4.33645ZM52.7657 6.75033C50.6968 6.75033 49.3668 7.73298 48.6279 8.41656L48.3534 7.09212H43.709V32L48.9868 30.8678L49.0079 24.8224C49.7679 25.3778 50.8868 26.1682 52.7445 26.1682C56.5234 26.1682 59.9645 23.0921 59.9645 16.3204C59.9434 10.1255 56.4601 6.75033 52.7657 6.75033ZM51.499 21.4686C50.2534 21.4686 49.5145 21.02 49.0079 20.4646L48.9868 12.5394C49.5357 11.9199 50.2957 11.4927 51.499 11.4927C53.4201 11.4927 54.7501 13.6716 54.7501 16.47C54.7501 19.3324 53.4412 21.4686 51.499 21.4686ZM76.6001 16.534C76.6001 11.0654 73.9823 6.75033 68.979 6.75033C63.9545 6.75033 60.9145 11.0654 60.9145 16.4913C60.9145 22.9212 64.5034 26.1682 69.6545 26.1682C72.1668 26.1682 74.0668 25.5915 75.5023 24.7797V20.5073C74.0668 21.2336 72.4201 21.6822 70.3301 21.6822C68.2823 21.6822 66.4668 20.9559 66.2345 18.4352H76.5579C76.5579 18.3176 76.5655 18.0504 76.5742 17.7425L76.5742 17.7419C76.5861 17.3232 76.6001 16.8294 76.6001 16.534ZM66.1712 14.5047C66.1712 12.0908 67.6279 11.0868 68.9579 11.0868C70.2457 11.0868 71.6179 12.0908 71.6179 14.5047H66.1712ZM36.4468 7.11348H41.7457V25.8051H36.4468V7.11348ZM30.4301 7.11348L30.7679 8.69426C32.0134 6.38718 34.4834 6.85714 35.159 7.11348V12.0267C34.5045 11.7917 32.3934 11.4927 31.1479 13.1375V25.8051H25.8701V7.11348H30.4301ZM20.2123 2.47797L15.0612 3.58879L15.0401 20.6996C15.0401 23.8611 17.3834 26.1896 20.5079 26.1896C22.239 26.1896 23.5057 25.8692 24.2023 25.4846V21.1482C23.5268 21.4259 20.1912 22.4085 20.1912 19.247V11.6636H24.2023V7.11348H20.1912L20.2123 2.47797ZM7.73565 11.3858C6.61676 11.3858 5.94121 11.7063 5.94121 12.5394C5.94121 13.449 7.10385 13.8491 8.54624 14.3456C10.8977 15.1548 13.9926 16.22 14.0057 20.1656C14.0057 23.9893 10.9868 26.1896 6.59565 26.1896C4.7801 26.1896 2.79565 25.8264 0.83232 24.972V19.8879C2.60565 20.8705 4.84343 21.5968 6.59565 21.5968C7.77788 21.5968 8.62232 21.2764 8.62232 20.2937C8.62232 19.2861 7.36199 18.8256 5.84044 18.2696C3.52321 17.4228 0.600098 16.3547 0.600098 12.7957C0.600098 9.01469 3.4501 6.75033 7.73565 6.75033C9.48788 6.75033 11.219 7.02804 12.9712 7.73298V12.753C11.3668 11.8772 9.3401 11.3858 7.73565 11.3858Z" fill="#635BFF"/>
</svg>
