<svg width="31" height="23" viewBox="0 0 31 23" fill="none" xmlns="http://www.w3.org/2000/svg">
<path d="M30.5898 3.29102L28.5977 1.29883C28.4609 1.16211 28.3047 1.05469 28.1289 0.976562C27.9727 0.898438 27.7969 0.859375 27.6016 0.859375C27.4062 0.859375 27.2207 0.898438 27.0449 0.976562C26.8691 1.05469 26.7129 1.16211 26.5762 1.29883L11.8398 16.0938L5.33594 9.58984C5.21875 9.45313 5.07227 9.35547 4.89648 9.29688C4.7207 9.21875 4.53516 9.17969 4.33984 9.17969C4.14453 9.17969 3.95898 9.21875 3.7832 9.29688C3.62695 9.35547 3.48047 9.45313 3.34375 9.58984L1.35156 11.582C1.21484 11.7188 1.10742 11.875 1.0293 12.0508C0.951172 12.207 0.912109 12.3828 0.912109 12.5781C0.912109 12.7734 0.951172 12.959 1.0293 13.1348C1.10742 13.3105 1.21484 13.4668 1.35156 13.6035L9.87695 22.041C10.1309 22.2949 10.4238 22.5 10.7559 22.6562C11.0879 22.793 11.4492 22.8613 11.8398 22.8613C12.2305 22.8613 12.5918 22.793 12.9238 22.6562C13.2754 22.5 13.5781 22.2949 13.832 22.041L30.5898 5.2832C30.7266 5.14648 30.8242 4.99023 30.8828 4.81445C30.9609 4.63867 31 4.45312 31 4.25781C31 4.0625 30.9609 3.88672 30.8828 3.73047C30.8242 3.55469 30.7266 3.39844 30.5898 3.26172V3.29102Z" fill="#18BB4B"/>
</svg>
